<svg xmlns="http://www.w3.org/2000/svg" xmlns:xlink="http://www.w3.org/1999/xlink" width="280" height="188" viewBox="0 0 280 188">
    <defs>
        <path id="a" d="M0 0h280v188H0z"/>
        <path id="c" d="M18.061.218c1.157.447 1.682 1.826 1.671 3.064-.01 1.238-.416 2.44-.507 3.674-.092 1.235.23 2.633 1.278 3.295.51.322 1.234.55 1.299 1.149.085.794-1.012 1.056-1.662 1.522-1.002.717-1 2.175-.918 3.402.082 1.227.02 2.703-1.032 3.345-1.348.825-2.987-.42-4.554-.63-1.451-.196-2.9.56-3.9 1.627-.999 1.068-3.279 6.803-3.893 8.129-2.583.017-5.207-3.373-5.706-7.16l6.351-9.8c-.872.211-1.804-.258-2.335-.98-.53-.72-.548-1.788-.013-2.505.536-.717 2.984-1.803 3.318 1.124 0 0 1.55-1.839 2.002-4.288.99-5.364 8.601-4.968 8.601-4.968"/>
        <linearGradient id="d" x1="62.194%" x2="44.248%" y1="244.672%" y2="-31.295%">
            <stop offset="0%" stop-color="#F4C3B4"/>
            <stop offset="100%" stop-color="#EC9985"/>
        </linearGradient>
        <path id="f" d="M11.06.012l3.698 14.2 28.837-5.604 1.238 4.615L8.515 28.298.444 3.838 11.059.013"/>
        <linearGradient id="g" x1="52.256%" x2="43.495%" y1="101.941%" y2="-176.929%">
            <stop offset="0%" stop-color="#F4C3B4"/>
            <stop offset="100%" stop-color="#EC9985"/>
        </linearGradient>
        <path id="i" d="M1.465 4.059c.428-.96.868-1.939 1.594-2.7C3.783.6 4.86.088 5.889.312c.436.095.84.316 1.283.373.785.102 1.53-.318 2.297-.513.768-.194 1.79-.018 2.011.74.163.56-.202 1.119-.406 1.665-.51 1.362-.028 2.947-.56 4.3-.463 1.182-1.639 1.969-2.868 2.295-1.229.326-2.524.262-3.794.196-.716-.038-1.453-.08-2.1-.39-.646-.31-1.185-.957-1.14-1.67l.853-3.248"/>
        <linearGradient id="j" x1="58.526%" x2="22.887%" y1="247.451%" y2="-598.705%">
            <stop offset="0%" stop-color="#F4C3B4"/>
            <stop offset="100%" stop-color="#EC9985"/>
        </linearGradient>
    </defs>
    <g fill="none" fill-rule="evenodd">
        <mask id="b" fill="#fff">
            <use xlink:href="#a"/>
        </mask>
        <g mask="url(#b)">
            <path fill="#EC9985" d="M46.334 181.826l-3.109 35.651c1.208.18 2.418.356 3.627.526l10.026-32.066-10.544-4.111"/>
            <path fill="#B64546" d="M62.378 168.344l.87-47.117-22.563-9.305-.274 1.306c-2.645 12.63 12.46 54.742 12.46 54.742l-6.269 10.783-.268 3.073 10.544 4.11 5.5-17.592"/>
            <path fill="#EC9985" d="M11.078 211.704c1.136.45 2.273.894 3.413 1.334l17.29-29.341-8.89-3.735-11.813 31.742"/>
            <path fill="#D45651" d="M32.636 108.331l-2.136 4.585c-4.421 9.49-6.49 14.16-5.656 24.591l6.842 28.953-6.307 6.816-2.488 6.686 8.89 3.735 9.136-15.503 6.811-43.97-15.092-15.893"/>
            <path fill="#EA8871" d="M61.044 65.395l25.343-7.642 31.081 3.821v3.821l-29.617.13-24.645 7.466-2.162-7.596"/>
            <path fill="#EA8871" d="M116.682 64.571c-.779.744-.825 2.021-.378 3 .447.978 1.286 1.716 2.133 2.38.846.666 1.74 1.305 2.367 2.18.551.766.866 1.674 1.33 2.497.462.823 1.143 1.605 2.064 1.82l-3.49-8.843c-.836-2.12-1.7-4.284-3.203-5.998l-.502.422-.321 2.542"/>
            <path fill="#EA8871" d="M122.492 72.907a5.886 5.886 0 0 0-.912-.405c.42-.484-.501-1.851-.157-2.392 1.551 1.478 4.415 3.816 5.967 5.294-.927.192-1.874-.233-2.64-.787-.767-.552-1.435-1.244-2.258-1.71"/>
            <path fill="#EA8871" d="M122.02 70.946a5.937 5.937 0 0 0-.952-.3c.362-.53-.708-1.784-.427-2.36 1.71 1.295 4.818 3.296 6.526 4.59-.898.295-1.888-.021-2.712-.485-.823-.463-1.565-1.075-2.435-1.445"/>
            <path fill="#EA8871" d="M120.359 71.404a3.95 3.95 0 0 0-.022-.742c.52.155 1.227-.862 1.762-.775-.564 1.483-1.308 4.11-1.871 5.593-.48-.587-.5-1.359-.356-2.042.144-.683.43-1.336.487-2.034"/>
            <path fill="#E9833B" d="M44.088 82.467c2.243 8.21-.875 17.62-7.582 22.878-3.156 2.473-7.483 5-7.097 8.984.285 2.94 3.15 4.885 5.844 6.109a42.302 42.302 0 0 0 20.248 3.664c2.82-.192 5.849-.786 7.747-2.875 2.045-2.248 2.218-5.646 1.625-8.623-.592-2.978-1.826-5.815-2.217-8.826-.641-4.958 1.05-9.89 2.747-14.593 3.053-8.458 5.838-24.5-6.965-26.6-4.423-.726-9.655 1.327-13.23 3.82-6.057 4.222-2.676 10.367-1.12 16.062"/>
            <path fill="#EC9985" d="M39.468 63.277L8.915 82.323l21.438 32.363 3.35-2.253-13.258-28.855 23.335-11.35-4.312-8.951"/>
            <path fill="#EC9985" d="M29.836 113.914c.35 1.018 1.494 1.594 2.571 1.6 1.078.005 2.102-.447 3.062-.935.96-.488 1.916-1.03 2.974-1.232.929-.178 1.887-.083 2.83-.157.943-.075 1.941-.364 2.521-1.11-3.17-.18-6.34-.36-9.51-.542-2.28-.13-4.448 2.376-4.448 2.376"/>
            <path fill="#EC9985" d="M39.857 112.144c-.271.194-.516.42-.75.656-.265-.583-1.896-.322-2.244-.86 1.996-.786 5.323-2.4 7.319-3.186-.214.918-.998 1.599-1.822 2.061-.825.463-1.734.778-2.503 1.329"/>
            <path fill="#EC9985" d="M37.874 111.75a5.88 5.88 0 0 0-.672.736c-.33-.55-1.92-.106-2.326-.602 1.894-1.005 5.018-2.983 6.912-3.988-.108.937-.81 1.7-1.578 2.253-.766.552-1.635.968-2.336 1.6"/>
            <path fill="#EC9985" d="M37.595 113.446a3.879 3.879 0 0 0-.684-.29c.359-.407-.27-1.473.033-1.922 1.113 1.133 3.193 2.907 4.306 4.038-.734.19-1.445-.117-2.007-.533-.56-.417-1.037-.949-1.648-1.293"/>
            <path fill="#64331F" d="M73.066 48.956c1.098-2.879.547-6.636-2.069-8.273.939-2.786-.608-6.032-3.15-7.517-2.543-1.486-5.806-1.385-8.522-.246-2.716 1.14-4.947 3.207-6.805 5.489-1.858 2.281-3.395 4.802-5.129 7.179-1.028 1.41-2.218 2.835-3.872 3.394-1.785.604-3.724.081-5.588-.192-1.864-.273-4.043-.17-5.247 1.276-1.547 1.858-.588 4.758-1.553 6.973-.774 1.778-2.65 2.806-4.486 3.443-1.835.637-3.796 1.035-5.4 2.13-3.391 2.315-4.168 7.109-3.255 11.105 1.278 5.6 5.463 10.543 10.917 12.378 5.455 1.835 11.99.302 15.784-4.017 4.3-4.894 4.659-12.182 8.375-17.532 3.021-4.35 7.226-5.593 11.948-7.257 3.552-1.25 6.737-4.888 8.052-8.333"/>
            <path fill="#EC9985" d="M65.913 41.835c1.169.15 1.968 1.303 2.24 2.447.272 1.145.173 2.346.37 3.506.198 1.16.812 2.377 1.93 2.75.544.18 1.264.228 1.46.765.26.712-.692 1.204-1.186 1.781-.76.889-.426 2.233-.07 3.347l.01.033c.53 1.679-.766 3.382-2.53 3.367a48.881 48.881 0 0 1-3.17-.138 1.552 1.552 0 0 0-1.547.937c-1.088 2.575-3.853 9.176-4.066 10.268-2.01.509-3.314-1.167-4.469-3.737a3.92 3.92 0 0 1-.144-2.888l3.144-9.093c-.757.391-1.724.171-2.378-.374-.654-.545-.913-1.525-.583-2.309.33-.784 2.342-2.34 3.317.283 0 0 1.011-2.047.87-4.41-.31-5.173 6.802-6.535 6.802-6.535M111.95 87.736l.65 16.336 12.605 24.676-3.93 1.424-16.58-23.242-1.61-19.73 8.865.536"/>
            <path fill="#EC9985" d="M124.713 128.46c.91-.024 1.842-.046 2.708.235.866.281 1.668.93 1.876 1.814.088.375.067.773.187 1.14.214.649.82 1.073 1.258 1.598.439.525.683 1.387.172 1.843-.378.336-.951.26-1.455.304-1.257.111-2.319 1.078-3.576 1.168-1.099.08-2.153-.542-2.867-1.378-.714-.836-1.147-1.869-1.569-2.883-.237-.572-.479-1.163-.477-1.781.001-.62.306-1.28.882-1.513l2.861-.547"/>
            <path fill="#101313" d="M110.933 122.026l-20.075-8.84-.052 1.334a74.638 74.638 0 0 0 8.29 37.162l7.134 13.792-1.545 14.552 6.325 36.814a432.29 432.29 0 0 0 3.664-.085l7.007-51.547-10.748-43.182"/>
            <path fill="#333635" d="M97.694 124.064l-15.093-15.892-2.135 4.584a60.526 60.526 0 0 0-5.472 30.39l1.534 19.18-7.06 12.826-8.424 36.393c1.135.45 2.273.894 3.412 1.334l26.427-44.844 6.811-43.97"/>
            <path fill="#00A4A9" d="M103.44 57.157c-3.898.186-7.43 2.328-9.884 5.065-2.454 2.737-3.986 6.038-5.414 9.313-4.93 11.305-13.497 47.99-11.178 51.645 0 0 6.895.744 11.667 1.93l16.668 4.14c2.53.628 7.983 2.212 7.983 2.212 3.77-1.953-2.014-39.167-.522-52.3.69-6.08 1.685-12.843-2.345-17.758l-6.975-4.247"/>
            <path fill="#243B3F" d="M119.968 41.98a14.317 14.317 0 0 0 3.977-6.174c.614-1.907.766-4.15-.412-5.77-1.156-1.59-3.336-2.16-5.289-1.913-1.953.247-3.743 1.175-5.486 2.087l-3.947 2.064c-.793.415-1.612.851-2.158 1.56-.545.707-.74 1.769-.204 2.485-2.762.827-4.233 4.47-2.817 6.974.747 1.32 2.136 2.345 2.336 3.848.258 1.932-1.601 3.793-1.033 5.657l15.033-10.817"/>
            <g transform="translate(101.111 35.931)">
                <mask id="e" fill="#fff">
                    <use xlink:href="#c"/>
                </mask>
                <path fill="url(#d)" d="M18.061.218c1.157.447 1.682 1.826 1.671 3.064-.01 1.238-.416 2.44-.507 3.674-.092 1.235.23 2.633 1.278 3.295.51.322 1.234.55 1.299 1.149.085.794-1.012 1.056-1.662 1.522-1.002.717-1 2.175-.918 3.402.082 1.227.02 2.703-1.032 3.345-1.348.825-2.987-.42-4.554-.63-1.451-.196-2.9.56-3.9 1.627-.999 1.068-3.279 6.803-3.893 8.129-2.583.017-5.207-3.373-5.706-7.16l6.351-9.8c-.872.211-1.804-.258-2.335-.98-.53-.72-.548-1.788-.013-2.505.536-.717 2.984-1.803 3.318 1.124 0 0 1.55-1.839 2.002-4.288.99-5.364 8.601-4.968 8.601-4.968" mask="url(#e)"/>
            </g>
            <g transform="translate(89.444 77.312)">
                <mask id="h" fill="#fff">
                    <use xlink:href="#f"/>
                </mask>
                <path fill="url(#g)" d="M11.06.012l3.698 14.2 28.837-5.604 1.238 4.615L8.515 28.298.444 3.838 11.059.013" mask="url(#h)"/>
            </g>
            <g transform="translate(129.63 81.838)">
                <mask id="k" fill="#fff">
                    <use xlink:href="#i"/>
                </mask>
                <path fill="url(#j)" d="M1.465 4.059c.428-.96.868-1.939 1.594-2.7C3.783.6 4.86.088 5.889.312c.436.095.84.316 1.283.373.785.102 1.53-.318 2.297-.513.768-.194 1.79-.018 2.011.74.163.56-.202 1.119-.406 1.665-.51 1.362-.028 2.947-.56 4.3-.463 1.182-1.639 1.969-2.868 2.295-1.229.326-2.524.262-3.794.196-.716-.038-1.453-.08-2.1-.39-.646-.31-1.185-.957-1.14-1.67l.853-3.248" mask="url(#k)"/>
            </g>
            <path fill="#E9833B" d="M167.704 40.739c-3.122-.66-5.144-4.446-3.95-7.398 1.195-2.951 5.286-4.277 7.99-2.59 1.092-1.845 3.346-2.93 5.473-2.635 2.127.294 3.999 1.953 4.544 4.025.15.568.22 1.188.592 1.644.49.6 1.339.728 2.044 1.05 2.287 1.039 2.898 4.17 2.04 6.528-.856 2.357-2.749 4.158-4.438 6.014-1.69 1.856-3.304 4.04-3.368 6.546a5.496 5.496 0 0 0-2.694-1.72l-8.233-11.464"/>
            <path fill="#00858B" d="M187.205 122.026l-20.075-8.84-.052 1.334a74.638 74.638 0 0 0 8.29 37.162l2.64 5.103 16.744-4.437-7.547-30.322"/>
            <path fill="#EA8871" d="M178.007 156.785l4.495 8.69-1.546 14.55 6.326 36.815c1.222-.023 2.443-.052 3.664-.085l4.801-51.742-3.067-12.116-14.673 3.888"/>
            <path fill="#EC9985" d="M165.09 156.98l1.787 7.45-7.534 10.53-5.803 26.038 3.099 2.085 23.435-36.877-.897-12.85-14.087 3.624"/>
            <path fill="#00A4A9" d="M176.325 121.759l-18.983-10.982-.749 5a60.523 60.523 0 0 0 3.373 30.692l4.141 10.764 16.427-4.226-4.21-31.248"/>
            <path fill="#D45651" d="M184.473 63.391c-3.5-4.89-17.299-1.16-17.323-1.133-2.454 2.737-1.308 6.002-2.736 9.277-4.931 11.305-9.027 33.657-8.506 62.47l33.646-2.543c3.77-1.953 3.835-55.614-5.08-68.071"/>
            <path fill="#EC9985" d="M168.84 36.143c-1.213.26-1.948 1.54-2.13 2.765-.184 1.224.027 2.475-.076 3.709-.103 1.233-.64 2.564-1.78 3.054-.554.238-1.304.351-1.462.932-.21.77.833 1.201 1.402 1.762.877.865.646 2.304.373 3.504-.274 1.199-.443 2.666.494 3.465 1.202 1.026 3.016.052 4.598.088 1.463.034.676 8.803 1.075 10.209 2.55.42 5.931-.357 7.018-4.019l.096-12.188c.828.344 1.823.027 2.46-.603.638-.63.822-1.68.406-2.473-.416-.793-2.665-2.247-3.454.592 0 0-1.242-2.058-1.304-4.548-.137-5.452-7.715-6.25-7.715-6.25"/>
            <path fill="#EA8871" d="M159.999 80.716l-8.323 14.083-2.804 27.554-4.078-.928-1.317-28.496 9.362-17.455 7.16 5.242"/>
            <path fill="#EA8871" d="M148.615 121.845c.778.47 1.573.956 2.147 1.66.576.705.899 1.683.593 2.54-.13.362-.364.684-.462 1.057-.173.662.107 1.346.19 2.024.083.678-.18 1.535-.856 1.641-.5.08-.941-.295-1.389-.53-1.117-.585-2.533-.347-3.64-.95-.966-.526-1.515-1.62-1.661-2.708-.147-1.088.05-2.19.247-3.27.11-.61.228-1.237.565-1.757.337-.519.954-.91 1.563-.794l2.703 1.087"/>
            <path fill="#EC9985" d="M185.462 81.946l-.864 7.26-33.962-4.145-.487 4.753L192.853 100l1.09-19.15-8.48 1.096"/>
            <path fill="#EC9985" d="M152.553 84.73c-.575-.88-1.166-1.777-2.003-2.413-.838-.636-1.982-.97-2.961-.586-.416.163-.78.445-1.209.571-.759.225-1.561-.07-2.35-.141-.788-.07-1.769.264-1.866 1.048-.073.58.377 1.073.666 1.58.72 1.264.497 2.905 1.237 4.157.646 1.093 1.932 1.684 3.197 1.811 1.266.127 2.534-.142 3.778-.409.7-.15 1.422-.31 2.01-.717.589-.408 1.018-1.132.86-1.83l-1.36-3.072"/>
            <path fill="#D45651" d="M169.902 62.14s-10.493-1.404-18.164 12.701l9.082 7.105 9.082-19.806M183.374 62.101s10.258 2.61 12.09 18.552l-11.085 3.205-1.005-21.757"/>
            <path fill="#714025" d="M204.977 78.073l-1.931-10.932-4.763.503-.362 13.134 7.056-2.705"/>
            <path fill="#714025" d="M203.765 68.944c.745-.742 1.503-1.504 1.955-2.452.45-.948.544-2.134-.035-3.011-.245-.372-.597-.67-.809-1.062-.376-.694-.251-1.539-.344-2.323-.094-.784-.625-1.673-1.413-1.607-.583.049-.975.59-1.413.976-1.091.963-2.747 1.083-3.823 2.063-.94.856-1.254 2.232-1.119 3.494.136 1.262.66 2.444 1.178 3.603.292.653.597 1.325 1.118 1.816.521.49 1.32.76 1.972.463l2.733-1.96"/>
            <path fill="#ED9A40" d="M221.186 62.27a137.953 137.953 0 0 0-11.246 26.584c-1.836-4.751-2.482-9.243-4.318-13.994a12.414 12.414 0 0 0-.645-1.428c-1.796.807-4.745 1.444-6.552 2.256a4.607 4.607 0 0 1-.669.239c-.014.336-.019.673-.02 1.006a87.915 87.915 0 0 0 4.64 28.54c.852 2.514 1.963 5.17 4.237 6.548 3.214 1.95 7.413.58 10.627-1.371 7.247-4.399 12.696-11.656 14.89-19.83l-10.944-28.55"/>
            <path fill="#00858B" d="M222.098 121.161l20.075-8.84.052 1.334a74.741 74.741 0 0 1-2.43 21.97c-1.932 7.297-5.995 13.814-7.996 21.082-1.174 4.265-1.972 8.65-2.776 12.996-1.943 10.506-3.524 21.079-5.02 31.655-.69 4.868-1.36 9.74-1.982 14.616a432.29 432.29 0 0 1-3.664-.084l-4.173-30.703a109.674 109.674 0 0 1 2.248-41.26l5.666-22.766"/>
            <path fill="#00A4A9" d="M235.337 123.2l15.093-15.893 2.136 4.584a60.526 60.526 0 0 1 5.472 30.39l-.368 4.593c-.76 9.515 14.318 63.806 14.318 63.806-1.136.45-2.273.894-3.413 1.334l-15.74-26.71a109.764 109.764 0 0 1-13.907-38.923l-3.59-23.182"/>
            <path fill="#F5BB3F" d="M229.592 56.292c3.898.186 7.43 2.328 9.884 5.065 2.454 2.737 3.985 6.038 5.414 9.314 4.93 11.304 13.497 47.99 11.177 51.644l-36.318 8.282c-3.77-1.952 2.014-39.167.523-52.3-.691-6.08-1.686-12.843 2.344-17.758l6.976-4.247"/>
            <path fill="#9D6339" d="M270.384 99.255l2.724 10.763 4.714-.847-.598-13.126-6.84 3.21"/>
            <path fill="#9D6339" d="M272.26 108.272c-.69.794-1.39 1.61-1.77 2.587-.382.979-.388 2.169.253 3.001.272.353.644.625.885 1 .426.666.363 1.517.513 2.292.15.776.744 1.623 1.526 1.5.578-.09.929-.658 1.338-1.075 1.019-1.04 2.661-1.28 3.662-2.336.875-.922 1.089-2.317.861-3.566-.227-1.248-.837-2.39-1.437-3.508-.34-.63-.692-1.277-1.248-1.729-.556-.452-1.372-.663-2.001-.319l-2.583 2.153"/>
            <path fill="#F5BB3F" d="M264.647 88.863c2.179 4.606 3.15 9.038 5.329 13.644.217.46.464.934.747 1.377 1.732-.935 4.627-1.785 6.37-2.726a4.63 4.63 0 0 1 .65-.286c-.01-.337-.03-.673-.053-1.006a87.943 87.943 0 0 0-6.712-28.126c-1.033-2.446-31.15-12.66-33.714-13.375-9.453-2.634-12.98 14.842-5.548 19.421 7.217 4.447 26.432 3.064 32.931 11.077"/>
            <path fill="#2C1A18" d="M215.446 44.712c-1.201.433-2.653.049-3.481-.92-.83-.97-.98-2.46-.362-3.576-2.13.13-3.66-2.842-2.317-4.493-1.21-.482-1.959-1.905-1.67-3.172.291-1.268 1.585-2.225 2.886-2.134-.152-1.705.811-3.457 2.334-4.247 1.522-.79 3.512-.57 4.825.532.597-1.958 2.449-3.47 4.49-3.668 2.041-.196 4.15.934 5.111 2.741 3.624-1.148 7.944 1.68 8.331 5.453 2.542.552 4.097 3.755 2.956 6.086 1.478.382 2.631 1.781 2.723 3.301.091 1.52-.886 3.047-2.308 3.603 1.058 2.313-1.161 5.375-3.694 5.098.584.804.459 2.038-.274 2.71-.733.672-1.976.693-2.73.045-.207 1.345-1.277 2.516-2.6 2.847-1.323.331-2.82-.198-3.639-1.286l-10.581-8.92"/>
            <path fill="#9D6339" d="M217.072 37.158c-1.092.236-1.753 1.39-1.917 2.494-.164 1.103.028 2.23-.064 3.341-.091 1.112-.573 2.312-1.599 2.755-.499.214-1.176.317-1.317.84-.188.695.752 1.082 1.266 1.587.79.778.584 2.075.34 3.156-.245 1.081-.397 2.404.449 3.122 1.084.923 2.718.043 4.142.074 1.32.028 2.503.904 3.242 1.993.74 1.09 1.965 6.513 2.326 7.778 2.297.376 5.108-2.276 6.083-5.576l-4.279-9.61c.746.31 1.643.023 2.216-.545.573-.567.738-1.515.362-2.229-.375-.713-2.403-2.02-3.11.538 0 0-1.122-1.853-1.18-4.096-.13-4.912-6.96-5.622-6.96-5.622"/>
        </g>
    </g>
</svg>
