<svg xmlns="http://www.w3.org/2000/svg" width="107" height="14" viewBox="0 0 107 14">
    <path fill="#EB8E7C" fill-rule="evenodd" d="M6.627 7.99c-.007-.357-.252-.536-.736-.536h-.853c-.22 0-.352.046-.397.138-.045.092-.068.289-.068.591v1.528c0 .125.006.273.02.444.012.21.019.384.019.522v.306c.013.46.07.717.174.77.065.052.323.078.775.078H8.1c.607 0 1.023-.095 1.25-.286.225-.19.339-.536.339-1.035v-.237c0-.092-.007-.197-.02-.315a.926.926 0 0 0-.01-.128.926.926 0 0 1-.01-.129 5.918 5.918 0 0 1-.019-.483v-.384c0-.75.33-1.124.989-1.124.684 0 1.027.381 1.027 1.144v.295c0 .119-.007.25-.02.395 0 .04-.003.095-.01.167-.006.073-.01.135-.01.188 0 .065-.002.131-.009.197-.006.066-.01.131-.01.197-.012.145-.019.27-.019.375v.591c0 .132.007.29.02.473 0 .053.003.096.01.129.006.032.009.062.009.088.013.105.02.207.02.306v.246c0 .776-.388 1.164-1.163 1.164h-.214c-.09 0-.167-.007-.232-.02a.88.88 0 0 1-.126-.01.88.88 0 0 0-.126-.01 4.83 4.83 0 0 0-.64-.069 17.435 17.435 0 0 0-1.24 0c-.232.007-.497.01-.794.01-.44-.013-.85-.023-1.23-.03a48.984 48.984 0 0 0-4.486.108.266.266 0 0 0-.116.02h-.156C.368 13.665 0 13.35 0 12.719c0-.578.297-.867.891-.867a.26.26 0 0 1 .058.01c.026.006.065.01.117.01.038 0 .09.003.155.01.064.006.129.01.194.01a1.972 1.972 0 0 0 .368.039c.426 0 .64-.382.64-1.144V3.194c0-.762-.214-1.143-.64-1.143-.09 0-.2.013-.33.04-.193.039-.38.058-.562.058a.886.886 0 0 1-.63-.246A.84.84 0 0 1 0 1.262C0 .644.368.335 1.104.335h.117a.97.97 0 0 1 .194.02l1.492.118c.335.027.584.05.746.07.161.019.332.022.513.01L8.662.413c.064 0 .38-.02.949-.06h-.02c.104-.012.2-.019.291-.019h.272c.865 0 1.298.381 1.298 1.144 0 .04-.007.148-.02.325-.012.178-.032.398-.058.66a5.38 5.38 0 0 0-.048.573 15.945 15.945 0 0 0 0 1.055c.006.15.016.266.029.345.026.184.045.348.058.493.013.144.02.27.02.374 0 .644-.33.966-.989.966s-.988-.42-.988-1.262v-.985c0-.947-.155-1.486-.465-1.617h.02c-.324-.132-1.118-.198-2.384-.198-.801 0-1.298.02-1.492.06-.375.131-.562.42-.562.867v1.302c-.013.092-.02.167-.02.226v.365c0 .355.026.559.078.611.13.027.258.04.388.04h.775c.555 0 .84-.171.852-.513a.885.885 0 0 1-.029-.236 3.808 3.808 0 0 0-.029-.336v.02a4.507 4.507 0 0 1-.058-.73c0-.67.33-1.005.988-1.005.66 0 .989.355.989 1.065 0 .065-.01.203-.03.414-.019.21-.054.48-.106.808a11.508 11.508 0 0 0-.116 1.499c0 .118.006.292.019.522.013.23.032.497.058.799l.097.63c.039.277.058.514.058.71 0 .632-.33.947-.988.947-.646 0-.969-.355-.969-1.065a5.404 5.404 0 0 1 .039-.61c0-.053.003-.126.01-.218.006-.092.012-.174.019-.246.006-.072.013-.125.02-.158.005-.027.008-.025.009.006v.009zm11.84 1.534c.025-.684.355-1.025.988-1.025s.949.374.949 1.124c0 .71-.052 1.31-.155 1.804-.103.493-.245.89-.426 1.193-.517.788-1.363 1.183-2.539 1.183-.542 0-1.01-.092-1.405-.276a2.275 2.275 0 0 1-.94-.789c-.348-.539-.522-1.374-.522-2.504V5.758c0-.092-.013-.138-.04-.138h-.58a.988.988 0 0 1-.708-.266.894.894 0 0 1 0-1.301.884.884 0 0 1 .65-.287h.716V1.755c0-.657.343-.986 1.027-.986.646 0 .97.329.97.986v1.991c0 .014.006.02.018.02h1.996c.672 0 1.008.303 1.008.907 0 .631-.349.947-1.046.947h-2.035c.039.026.058.072.058.138v4.594c0 1.13.317 1.696.95 1.696.684 0 1.027-.44 1.027-1.321l.038-1.203zm6.239-8.242l-.078 2.938a3.834 3.834 0 0 1 1.153-.641 4.196 4.196 0 0 1 1.308-.187c.581 0 1.105.085 1.57.256.465.17.862.414 1.191.73.33.315.585.693.766 1.133.18.44.271.93.271 1.47v4.002c0 .21.006.329.02.355.038.42.096.631.174.631h.135a.628.628 0 0 0 .194-.04.628.628 0 0 1 .194-.039h.194c.659 0 .988.29.988.868 0 .591-.4.887-1.201.887-.168 0-.407-.02-.717-.06l-.698-.068a5.659 5.659 0 0 0-.901-.02c-.123.007-.23.017-.32.03-.49.079-.82.118-.988.118-.31 0-.568-.092-.775-.276a.886.886 0 0 1-.31-.69c0-.224.094-.417.28-.582a.98.98 0 0 1 .67-.246c.154 0 .348.04.58.118.027 0 .059.003.098.01.038.006.077.01.116.01.142 0 .226-.316.252-.947v-.335c0-.158.006-.342.02-.552 0-.105.002-.237.009-.394.006-.158.01-.29.01-.395V8.361c0-1.21-.11-2.018-.33-2.426-.284-.565-.814-.848-1.589-.848-.852 0-1.472.296-1.86.888-.258.407-.4 1.104-.426 2.09 0 .223-.004.447-.01.67-.006.224-.01.447-.01.67v.188c0 .085-.006.161-.019.227v1.134c0 .203.006.331.02.384.038.447.116.67.232.67a.803.803 0 0 0 .136-.02c.064-.012.142-.026.232-.039a.743.743 0 0 1 .223-.049c.084-.007.152-.01.203-.01.607 0 .911.276.911.828 0 .618-.375.927-1.124.927a7.74 7.74 0 0 1-.814-.06c-.22-.025-.426-.045-.62-.058a7.802 7.802 0 0 0-.523-.02c-.194 0-.471.02-.833.06-.258.025-.468.045-.63.058-.161.013-.274.02-.339.02-.71 0-1.066-.315-1.066-.946 0-.54.336-.809 1.008-.809.18 0 .323.013.426.04h-.02c.104.026.188.039.253.039h.135c.026 0 .046-.112.058-.335.065-.342.11-1.104.136-2.288 0-.552.003-1.11.01-1.676.006-.565.01-1.124.01-1.676 0-1.827-.04-2.99-.117-3.49-.039-.315-.097-.486-.174-.512-.013.013-.055.023-.126.03a1.207 1.207 0 0 0-.184.029.78.78 0 0 1-.252.04h-.252c-.62 0-.93-.283-.93-.849 0-.263.103-.48.31-.65.207-.171.459-.257.756-.257.09 0 .31.02.658.06h-.019a6.237 6.237 0 0 0 .736.039 3.69 3.69 0 0 0 .465-.04 1.896 1.896 0 0 1 .407-.04c.491 0 .737.297.737.888v.04zm17.768 6.526c0 .303-.006.54-.019.71a.788.788 0 0 1-.116.395.405.405 0 0 1-.281.167c-.123.02-.294.03-.514.03h-5.832c-.052 0-.078.006-.078.02 0 .88.252 1.597.756 2.149.478.565 1.079.848 1.802.848.478 0 .91-.132 1.298-.395s.64-.598.756-1.005l.174-.533c.078-.197.191-.355.34-.473a.859.859 0 0 1 .552-.177c.672 0 1.007.328 1.007.986 0 .893-.452 1.682-1.356 2.366a4.715 4.715 0 0 1-2.926.986c-1.395 0-2.5-.467-3.313-1.4-.801-.934-1.202-2.17-1.202-3.707 0-1.552.427-2.84 1.28-3.865.865-1.012 1.995-1.518 3.39-1.518.646 0 1.22.105 1.725.315.504.21.956.52 1.356.927.801.854 1.201 1.912 1.201 3.174zm-2.112-.473c0-.591-.213-1.104-.64-1.538-.451-.434-.955-.65-1.51-.65-.569 0-1.124.236-1.667.71-.49.46-.736.952-.736 1.478h4.553zm5.988-3.608c.426 0 .678.17.756.512.633-.565 1.388-.847 2.267-.847.478 0 .91.069 1.298.207.387.138.723.335 1.008.591.284.256.503.562.658.917.155.355.233.75.233 1.183 0 .631-.162 1.14-.485 1.528-.322.388-.755.582-1.298.582-.374 0-.688-.112-.94-.335a1.064 1.064 0 0 1-.377-.828c0-.263.106-.5.32-.71.212-.21.455-.316.726-.316.026 0 .023-.006-.01-.02l.049.02v-.098c0-.29-.126-.533-.378-.73-.252-.197-.565-.296-.94-.296-.814 0-1.356.382-1.628 1.144-.18.526-.27 1.301-.27 2.327v2.149c0 .224.006.362.018.414.065.579.149.868.252.868a2.116 2.116 0 0 0 .407-.04c.168-.052.317-.079.446-.079.594 0 .891.283.891.848 0 .618-.355.927-1.065.927h-.059c-.103 0-.229-.007-.377-.02-.149-.013-.32-.033-.514-.059-.375-.04-.64-.059-.794-.059-.246 0-.459.003-.64.01a8.77 8.77 0 0 0-.484.03l-1.047.098c-.71 0-1.065-.309-1.065-.927 0-.552.336-.828 1.007-.828.065 0 .12-.003.165-.01.045-.006.1.004.165.03l.232.059h.155c.013.013.033.02.058.02h.02c.116 0 .18-.197.194-.592 0-.158.006-.315.019-.473.013-.158.02-.316.02-.473l-.059-4.24c-.026-.486-.09-.762-.194-.828-.025 0-.09.007-.193.02-.104.013-.175.02-.214.02h.04c-.156.039-.317.059-.485.059-.607 0-.91-.29-.91-.868 0-.605.36-.907 1.084-.907a.842.842 0 0 0 .233.03c.129.006.245.016.348.03a5.138 5.138 0 0 0 .524.039h.106c.045 0 .1-.007.165-.02a.211.211 0 0 0 .068-.01.29.29 0 0 1 .087-.01c.13-.026.265-.04.407-.04zM58.557 0c1.073 0 1.97.276 2.694.828.103-.434.387-.65.852-.65.633 0 .95.361.95 1.084v.118a.274.274 0 0 1-.01.06.33.33 0 0 0-.01.078 6.585 6.585 0 0 0-.067.67c-.02.303-.03.645-.03 1.026 0 .013.004.036.01.07.007.032.01.075.01.127v.158c0 .066.006.145.02.237l.058.73c.025.065.035.114.029.147a.83.83 0 0 0-.01.148c0 .789-.336 1.183-1.008 1.183-.684 0-1.027-.342-1.027-1.025V4.89l.039-.532c.013-.092.02-.171.02-.237v-.158c0-.67-.223-1.196-.67-1.577-.445-.381-1.062-.572-1.85-.572-.723 0-1.291.178-1.705.532-.413.355-.62.835-.62 1.44 0 .697.297 1.203.892 1.518.18.105.442.197.784.276.343.08.746.158 1.211.237.698.131 1.33.283 1.9.453.568.171.988.368 1.259.592.439.355.775.769 1.007 1.242.233.473.35 1.006.35 1.597 0 1.262-.46 2.3-1.377 3.116-.904.775-2.054 1.163-3.449 1.163-1.214 0-2.26-.309-3.139-.926 0 .63-.323.946-.969.946-.684 0-1.027-.355-1.027-1.065a.66.66 0 0 1 .02-.158l.077-.985c.039-.487.058-.796.058-.927 0-.105-.01-.25-.029-.434a99.32 99.32 0 0 1-.067-.67 24.729 24.729 0 0 1-.059-.67 7.118 7.118 0 0 1-.019-.494c0-.75.336-1.124 1.008-1.124.697 0 1.046.375 1.046 1.124v.395a.521.521 0 0 0-.02.157v.217c0 .868.269 1.555.805 2.06.536.507 1.269.76 2.199.76.853 0 1.528-.2 2.025-.601.497-.401.746-.957.746-1.667 0-.5-.174-.913-.523-1.242-.349-.329-.833-.559-1.453-.69l-1.066-.197a13.99 13.99 0 0 1-1.444-.316c-.42-.118-.778-.236-1.075-.355a3.125 3.125 0 0 1-1.415-1.232 3.483 3.483 0 0 1-.523-1.883c0-1.183.433-2.156 1.298-2.918C56.09.36 57.188 0 58.557 0zm10.231 1.282l-.077 2.938a3.834 3.834 0 0 1 1.153-.641 4.196 4.196 0 0 1 1.308-.187c.581 0 1.104.085 1.57.256.464.17.862.414 1.191.73.33.315.585.693.765 1.133.181.44.272.93.272 1.47v4.002c0 .21.006.329.02.355.038.42.096.631.174.631h.135a.628.628 0 0 0 .194-.04.628.628 0 0 1 .194-.039h.193c.66 0 .989.29.989.868 0 .591-.4.887-1.202.887-.168 0-.407-.02-.717-.06l-.697-.068a5.659 5.659 0 0 0-.901-.02c-.123.007-.23.017-.32.03-.49.079-.82.118-.988.118-.31 0-.569-.092-.775-.276a.886.886 0 0 1-.31-.69c0-.224.093-.417.28-.582a.98.98 0 0 1 .67-.246c.154 0 .348.04.58.118.026 0 .059.003.097.01.04.006.078.01.117.01.142 0 .226-.316.252-.947v-.335c0-.158.006-.342.019-.552 0-.105.003-.237.01-.394.006-.158.01-.29.01-.395V8.361c0-1.21-.11-2.018-.33-2.426-.284-.565-.814-.848-1.589-.848-.853 0-1.473.296-1.86.888-.259.407-.4 1.104-.427 2.09 0 .223-.003.447-.01.67-.006.224-.009.447-.009.67v.188c0 .085-.006.161-.02.227v1.134c0 .203.007.331.02.384.039.447.116.67.233.67a.803.803 0 0 0 .135-.02c.065-.012.142-.026.233-.039a.743.743 0 0 1 .223-.049c.084-.007.151-.01.203-.01.607 0 .91.276.91.828 0 .618-.374.927-1.123.927a7.74 7.74 0 0 1-.814-.06c-.22-.025-.426-.045-.62-.058a7.802 7.802 0 0 0-.523-.02c-.194 0-.472.02-.833.06-.259.025-.469.045-.63.058-.162.013-.275.02-.34.02-.71 0-1.065-.315-1.065-.946 0-.54.336-.809 1.008-.809.18 0 .323.013.426.04h-.02c.104.026.188.039.252.039h.136c.026 0 .045-.112.058-.335.065-.342.11-1.104.136-2.288 0-.552.003-1.11.01-1.676.006-.565.01-1.124.01-1.676 0-1.827-.04-2.99-.117-3.49-.039-.315-.097-.486-.174-.512-.013.013-.055.023-.126.03a1.207 1.207 0 0 0-.184.029.78.78 0 0 1-.252.04h-.252c-.62 0-.93-.283-.93-.849 0-.263.103-.48.31-.65.206-.171.458-.257.755-.257.09 0 .31.02.66.06h-.02a6.237 6.237 0 0 0 .736.039 3.69 3.69 0 0 0 .465-.04 1.896 1.896 0 0 1 .407-.04c.491 0 .736.297.736.888v.04zm17.033 12.52c-.956 0-1.602-.328-1.938-.985-.684.71-1.634 1.065-2.848 1.065-1.098 0-1.97-.273-2.616-.819-.646-.545-.969-1.271-.969-2.178 0-.553.132-1.042.397-1.47a3.038 3.038 0 0 1 1.076-1.035c.348-.197.652-.328.91-.394.246-.066.743-.145 1.492-.237.982-.105 1.609-.243 1.88-.414.22-.158.33-.453.33-.887 0-.42-.146-.756-.437-1.006-.29-.25-.7-.374-1.23-.374-.504 0-.962.144-1.376.433v-.02c-.09.093-.135.145-.135.158h.019c.271.237.407.52.407.848 0 .329-.12.598-.359.809-.239.21-.539.315-.9.315-.414 0-.756-.134-1.028-.404a1.372 1.372 0 0 1-.407-1.015c0-.79.382-1.453 1.144-1.992.723-.539 1.608-.808 2.654-.808 2.442 0 3.663 1.176 3.663 3.53v3.765c0 .263.003.483.01.66.006.178.015.3.028.366.065.289.168.433.31.433.22 0 .33-.308.33-.926v-.927c0-.565.29-.848.872-.848.62 0 .93.381.93 1.144v.098l-.02 1.065c-.025 1.367-.755 2.05-2.19 2.05zM83.496 9.09a2.258 2.258 0 0 0-.223.089 1.727 1.727 0 0 1-.242.089c-.35.118-.898.21-1.647.276-1.215.118-1.822.558-1.822 1.32 0 .382.139.688.417.918.277.23.662.345 1.153.345.736 0 1.308-.204 1.715-.612.406-.407.616-.966.63-1.676l.019-.749zm7.634-5.363c.427 0 .678.17.756.512.633-.565 1.389-.847 2.267-.847.478 0 .91.069 1.298.207.388.138.724.335 1.008.591.284.256.504.562.659.917.155.355.232.75.232 1.183 0 .631-.161 1.14-.484 1.528-.323.388-.756.582-1.298.582-.375 0-.688-.112-.94-.335a1.064 1.064 0 0 1-.378-.828c0-.263.106-.5.32-.71.213-.21.455-.316.726-.316.026 0 .023-.006-.01-.02l.049.02v-.098c0-.29-.126-.533-.378-.73-.252-.197-.565-.296-.94-.296-.813 0-1.356.382-1.627 1.144-.181.526-.272 1.301-.272 2.327v2.149c0 .224.007.362.02.414.064.579.148.868.252.868a2.116 2.116 0 0 0 .407-.04c.168-.052.316-.079.445-.079.595 0 .892.283.892.848 0 .618-.356.927-1.066.927h-.058c-.104 0-.23-.007-.378-.02-.149-.013-.32-.033-.514-.059-.374-.04-.639-.059-.794-.059-.245 0-.459.003-.64.01a8.77 8.77 0 0 0-.484.03l-1.046.098c-.71 0-1.066-.309-1.066-.927 0-.552.336-.828 1.008-.828.064 0 .12-.003.164-.01.046-.006.1.004.165.03l.233.059h.155c.012.013.032.02.058.02h.02c.115 0 .18-.197.193-.592 0-.158.006-.315.02-.473.012-.158.019-.316.019-.473l-.059-4.24c-.025-.486-.09-.762-.193-.828-.026 0-.09.007-.194.02-.103.013-.174.02-.213.02h.039c-.155.039-.317.059-.485.059-.607 0-.91-.29-.91-.868 0-.605.361-.907 1.085-.907a.842.842 0 0 0 .232.03c.13.006.245.016.349.03a5.138 5.138 0 0 0 .523.039h.107c.045 0 .1-.007.164-.02a.211.211 0 0 0 .068-.01.29.29 0 0 1 .087-.01c.13-.026.265-.04.407-.04zM107 7.808c0 .303-.006.54-.02.71a.788.788 0 0 1-.116.395.405.405 0 0 1-.28.167c-.123.02-.294.03-.514.03h-5.833c-.051 0-.077.006-.077.02 0 .88.252 1.597.756 2.149.478.565 1.078.848 1.802.848.478 0 .91-.132 1.298-.395.387-.263.64-.598.756-1.005l.174-.533c.078-.197.19-.355.34-.473a.859.859 0 0 1 .551-.177c.672 0 1.008.328 1.008.986 0 .893-.452 1.682-1.356 2.366a4.715 4.715 0 0 1-2.926.986c-1.395 0-2.5-.467-3.314-1.4-.8-.934-1.201-2.17-1.201-3.707 0-1.552.426-2.84 1.279-3.865.865-1.012 1.996-1.518 3.39-1.518.647 0 1.221.105 1.725.315.504.21.956.52 1.357.927.8.854 1.201 1.912 1.201 3.174zm-2.112-.473c0-.591-.213-1.104-.64-1.538-.452-.434-.955-.65-1.51-.65-.57 0-1.125.236-1.667.71-.491.46-.737.952-.737 1.478h4.554z"/>
</svg>
